<svg xmlns="http://www.w3.org/2000/svg" viewBox="0 0 800 200">
  <!-- Next.js Logo -->
  <g transform="translate(50, 50)">
    <path d="M120 0H0v120h120V0zm-6.4 66.3L66.3 113.6h-12L101.6 66 54.3 18.4h12l47.3 47.9z" fill="#000"/>
  </g>
  
  <!-- ClickUp Logo -->
  <g transform="translate(200, 50)">
    <path d="M60 0C26.9 0 0 26.9 0 60s26.9 60 60 60 60-26.9 60-60S93.1 0 60 0zm28.8 44.5L56.5 76.8c-2.3 2.3-6 2.3-8.3 0l-17-17c-2.3-2.3-2.3-6 0-8.3 2.3-2.3 6-2.3 8.3 0l12.9 12.9 28.1-28.1c2.3-2.3 6-2.3 8.3 0 2.3 2.2 2.3 5.9 0 8.2z" fill="#7B68EE"/>
  </g>
  
  <!-- MongoDB Logo -->
  <g transform="translate(350, 50)">
    <path d="M60 0C26.9 0 0 26.9 0 60s26.9 60 60 60 60-26.9 60-60S93.1 0 60 0zm0 92c-1.7 0-3-1.3-3-3V31c0-1.7 1.3-3 3-3s3 1.3 3 3v58c0 1.7-1.3 3-3 3z" fill="#00ED64"/>
  </g>
  
  <!-- React Grid Layout Logo -->
  <g transform="translate(500, 50)">
    <circle cx="60" cy="60" r="45" fill="none" stroke="#61DAFB" stroke-width="10"/>
    <rect x="30" y="30" width="20" height="20" fill="#61DAFB"/>
    <rect x="70" y="30" width="20" height="20" fill="#61DAFB"/>
    <rect x="30" y="70" width="20" height="20" fill="#61DAFB"/>
    <rect x="70" y="70" width="20" height="20" fill="#61DAFB"/>
  </g>
  
  <!-- Gridster Logo -->
  <g transform="translate(650, 50)">
    <path d="M0 0h40v40H0zm50 0h40v40H50zm50 0h40v40h-40zm-100 50h40v40H0zm50 0h40v40H50zm50 0h40v40h-40z" fill="#FF4081"/>
  </g>
</svg>